<svg version="1.2" xmlns="http://www.w3.org/2000/svg" viewBox="0 0 21 20" width="21" height="20">
	<title>Vector (2)-svg</title>
	<style>
		.s0 { fill: #6f6f6f } 
	</style>
	<path id="Layer" fill-rule="evenodd" class="s0" d="m11.9 18.5c-0.7 0.9-2.1 0.9-2.9 0l-5.1-6.5c-0.7-0.9-0.1-2.3 1.2-2.4h1.4v-4.6q0-0.4 0.1-0.7 0.1-0.4 0.4-0.6 0.3-0.3 0.6-0.4 0.3-0.2 0.7-0.2h4.4c0.4 0 0.9 0.2 1.3 0.6 0.3 0.3 0.5 0.8 0.5 1.3v4.6h1.3c1.3 0 2 1.5 1.2 2.4zm-2.2-0.5q0.2 0.2 0.4 0.3 0.2 0.1 0.4 0.1 0.2 0 0.4-0.1 0.2-0.1 0.3-0.3l5.1-6.4c0.3-0.4 0-1-0.5-1h-1.8q0 0-0.1-0.1-0.1 0-0.2-0.1 0 0-0.1-0.1 0-0.1 0-0.2v-5.1q0-0.4-0.3-0.6-0.3-0.3-0.6-0.3h-4.4q-0.2 0-0.4 0-0.2 0.1-0.3 0.3-0.1 0.1-0.2 0.3-0.1 0.1-0.1 0.3v5.1q0 0.2-0.1 0.3-0.1 0.2-0.3 0.2h-1.8c-0.5 0-0.8 0.6-0.5 1z"/>
</svg>